<?xml version="1.0" standalone="no"?><svg xmlns="http://www.w3.org/2000/svg" viewBox="0 0 1440 320"><path fill="#00cba9" fill-opacity="1" d="M0,192L6.9,165.3C13.7,139,27,85,41,64C54.9,43,69,53,82,69.3C96,85,110,107,123,144C137.1,181,151,235,165,213.3C178.3,192,192,96,206,64C219.4,32,233,64,247,96C260.6,128,274,160,288,149.3C301.7,139,315,85,329,74.7C342.9,64,357,96,370,144C384,192,398,256,411,272C425.1,288,439,256,453,213.3C466.3,171,480,117,494,122.7C507.4,128,521,192,535,224C548.6,256,562,256,576,245.3C589.7,235,603,213,617,181.3C630.9,149,645,107,658,80C672,53,686,43,699,69.3C713.1,96,727,160,741,208C754.3,256,768,288,782,277.3C795.4,267,809,213,823,197.3C836.6,181,850,203,864,213.3C877.7,224,891,224,905,208C918.9,192,933,160,946,154.7C960,149,974,171,987,192C1001.1,213,1015,235,1029,245.3C1042.3,256,1056,256,1070,261.3C1083.4,267,1097,277,1111,240C1124.6,203,1138,117,1152,117.3C1165.7,117,1179,203,1193,234.7C1206.9,267,1221,245,1234,218.7C1248,192,1262,160,1275,138.7C1289.1,117,1303,107,1317,138.7C1330.3,171,1344,245,1358,250.7C1371.4,256,1385,192,1399,138.7C1412.6,85,1426,43,1433,21.3L1440,0L1440,320L1433.1,320C1426.3,320,1413,320,1399,320C1385.1,320,1371,320,1358,320C1344,320,1330,320,1317,320C1302.9,320,1289,320,1275,320C1261.7,320,1248,320,1234,320C1220.6,320,1207,320,1193,320C1179.4,320,1166,320,1152,320C1138.3,320,1125,320,1111,320C1097.1,320,1083,320,1070,320C1056,320,1042,320,1029,320C1014.9,320,1001,320,987,320C973.7,320,960,320,946,320C932.6,320,919,320,905,320C891.4,320,878,320,864,320C850.3,320,837,320,823,320C809.1,320,795,320,782,320C768,320,754,320,741,320C726.9,320,713,320,699,320C685.7,320,672,320,658,320C644.6,320,631,320,617,320C603.4,320,590,320,576,320C562.3,320,549,320,535,320C521.1,320,507,320,494,320C480,320,466,320,453,320C438.9,320,425,320,411,320C397.7,320,384,320,370,320C356.6,320,343,320,329,320C315.4,320,302,320,288,320C274.3,320,261,320,247,320C233.1,320,219,320,206,320C192,320,178,320,165,320C150.9,320,137,320,123,320C109.7,320,96,320,82,320C68.6,320,55,320,41,320C27.4,320,14,320,7,320L0,320Z"></path></svg>